<?xml version="1.0" encoding="UTF-8" standalone="no"?>
<!DOCTYPE svg PUBLIC "-//W3C//DTD SVG 1.1//EN"
 "http://www.w3.org/Graphics/SVG/1.1/DTD/svg11.dtd">
<!-- Generated by graphviz version 5.0.0 (20220707.1540)
 -->
<!-- Title: StorageDiagram Pages: 1 -->
<svg width="1224pt" height="183pt"
 viewBox="0.00 0.00 1223.78 183.00" xmlns="http://www.w3.org/2000/svg" xmlns:xlink="http://www.w3.org/1999/xlink">
<g id="graph0" class="graph" transform="scale(1 1) rotate(0) translate(4 179)">
<title>StorageDiagram</title>
<polygon fill="white" stroke="transparent" points="-4,4 -4,-179 1219.78,-179 1219.78,4 -4,4"/>
<!-- 2 -->
<g id="node1" class="node">
<title>2</title>
<polygon fill="#f2f2f2" stroke="black" points="0,-50.5 0,-174.5 594.89,-174.5 594.89,-50.5 0,-50.5"/>
<text text-anchor="middle" x="297.45" y="-157.9" font-family="Courier New" font-size="14.00">AllowanceGovernor &lt;&lt;Contract&gt;&gt;</text>
<polyline fill="none" stroke="black" points="0,-149.7 594.89,-149.7 "/>
<text text-anchor="middle" x="24.8" y="-133.1" font-family="Courier New" font-size="14.00">slot</text>
<polyline fill="none" stroke="black" points="0,-124.9 49.61,-124.9 "/>
<text text-anchor="middle" x="24.8" y="-108.3" font-family="Courier New" font-size="14.00">0</text>
<polyline fill="none" stroke="black" points="0,-100.1 49.61,-100.1 "/>
<text text-anchor="middle" x="24.8" y="-83.5" font-family="Courier New" font-size="14.00">1</text>
<polyline fill="none" stroke="black" points="0,-75.3 49.61,-75.3 "/>
<text text-anchor="middle" x="24.8" y="-58.7" font-family="Courier New" font-size="14.00">2</text>
<polyline fill="none" stroke="black" points="49.61,-50.5 49.61,-149.7 "/>
<text text-anchor="middle" x="322.25" y="-133.1" font-family="Courier New" font-size="14.00">type: &lt;inherited contract&gt;.variable (bytes)</text>
<polyline fill="none" stroke="black" points="49.61,-124.9 594.89,-124.9 "/>
<text text-anchor="middle" x="322.23" y="-108.3" font-family="Courier New" font-size="14.00">string: AllowanceMeta.__name (32)</text>
<polyline fill="none" stroke="black" points="49.61,-100.1 594.89,-100.1 "/>
<text text-anchor="middle" x="321.83" y="-83.5" font-family="Courier New" font-size="14.00">string: AllowanceMeta.__version (32)</text>
<polyline fill="none" stroke="black" points="49.61,-75.3 594.89,-75.3 "/>
<text text-anchor="middle" x="322.25" y="-58.7" font-family="Courier New" font-size="14.00">mapping(bytes32=&gt;Allowance): AllowanceDatabase._allowances (32)</text>
</g>
<!-- 1 -->
<g id="node2" class="node">
<title>1</title>
<polygon fill="#f2f2f2" stroke="black" points="630.89,-0.5 630.89,-124.5 1215.78,-124.5 1215.78,-0.5 630.89,-0.5"/>
<text text-anchor="middle" x="923.33" y="-107.9" font-family="Courier New" font-size="14.00">Allowance &lt;&lt;Struct&gt;&gt;</text>
<polyline fill="none" stroke="black" points="630.89,-99.7 1215.78,-99.7 "/>
<text text-anchor="middle" x="664.1" y="-83.1" font-family="Courier New" font-size="14.00">offset</text>
<polyline fill="none" stroke="black" points="630.89,-74.9 697.3,-74.9 "/>
<text text-anchor="middle" x="664.1" y="-58.3" font-family="Courier New" font-size="14.00">0</text>
<polyline fill="none" stroke="black" points="630.89,-50.1 697.3,-50.1 "/>
<text text-anchor="middle" x="664.1" y="-33.5" font-family="Courier New" font-size="14.00">1</text>
<polyline fill="none" stroke="black" points="630.89,-25.3 697.3,-25.3 "/>
<text text-anchor="middle" x="664.1" y="-8.7" font-family="Courier New" font-size="14.00">2</text>
<polyline fill="none" stroke="black" points="697.3,-0.5 697.3,-99.7 "/>
<text text-anchor="middle" x="956.54" y="-83.1" font-family="Courier New" font-size="14.00">type: variable (bytes)</text>
<polyline fill="none" stroke="black" points="697.3,-74.9 1215.78,-74.9 "/>
<text text-anchor="middle" x="768.31" y="-58.3" font-family="Courier New" font-size="14.00">unallocated (4)</text>
<polyline fill="none" stroke="black" points="839.32,-50.1 839.32,-74.9 "/>
<text text-anchor="middle" x="939.74" y="-58.3" font-family="Courier New" font-size="14.00">uint64: expiration (8)</text>
<polyline fill="none" stroke="black" points="1040.15,-50.1 1040.15,-74.9 "/>
<text text-anchor="middle" x="1127.96" y="-58.3" font-family="Courier New" font-size="14.00">address: owner (20)</text>
<polyline fill="none" stroke="black" points="697.3,-50.1 1215.78,-50.1 "/>
<text text-anchor="middle" x="820.61" y="-33.5" font-family="Courier New" font-size="14.00">uint96: amount (12)</text>
<polyline fill="none" stroke="black" points="943.93,-25.3 943.93,-50.1 "/>
<text text-anchor="middle" x="1079.84" y="-33.5" font-family="Courier New" font-size="14.00">address: delegate (20)</text>
<polyline fill="none" stroke="black" points="697.3,-25.3 1215.78,-25.3 "/>
<text text-anchor="middle" x="824.41" y="-8.7" font-family="Courier New" font-size="14.00">uint96: spent (12)</text>
<polyline fill="none" stroke="black" points="951.52,-0.5 951.52,-25.3 "/>
<text text-anchor="middle" x="1083.34" y="-8.7" font-family="Courier New" font-size="14.00">address: token (20)</text>
</g>
<!-- 2&#45;&gt;1 -->
<g id="edge1" class="edge">
<title>2:9&#45;&gt;1</title>
<path fill="none" stroke="black" d="M594.89,-62.5C603.37,-62.5 611.97,-62.5 620.65,-62.5"/>
<polygon fill="black" stroke="black" points="620.88,-66 630.88,-62.5 620.88,-59 620.88,-66"/>
</g>
</g>
</svg>
