<?xml version="1.0" encoding="UTF-8" standalone="no"?>
<!DOCTYPE svg PUBLIC "-//W3C//DTD SVG 1.1//EN"
 "http://www.w3.org/Graphics/SVG/1.1/DTD/svg11.dtd">
<!-- Generated by graphviz version 5.0.0 (20220707.1540)
 -->
<!-- Title: StorageDiagram Pages: 1 -->
<svg width="1283pt" height="195pt"
 viewBox="0.00 0.00 1282.59 195.40" xmlns="http://www.w3.org/2000/svg" xmlns:xlink="http://www.w3.org/1999/xlink">
<g id="graph0" class="graph" transform="scale(1 1) rotate(0) translate(4 191.4)">
<title>StorageDiagram</title>
<polygon fill="white" stroke="transparent" points="-4,4 -4,-191.4 1278.59,-191.4 1278.59,4 -4,4"/>
<!-- 2 -->
<g id="node1" class="node">
<title>2</title>
<polygon fill="#f2f2f2" stroke="black" points="0,-62.9 0,-186.9 594.89,-186.9 594.89,-62.9 0,-62.9"/>
<text text-anchor="middle" x="297.45" y="-170.3" font-family="Courier New" font-size="14.00">DelegatedTransferModule &lt;&lt;Contract&gt;&gt;</text>
<polyline fill="none" stroke="black" points="0,-162.1 594.89,-162.1 "/>
<text text-anchor="middle" x="24.8" y="-145.5" font-family="Courier New" font-size="14.00">slot</text>
<polyline fill="none" stroke="black" points="0,-137.3 49.61,-137.3 "/>
<text text-anchor="middle" x="24.8" y="-120.7" font-family="Courier New" font-size="14.00">0</text>
<polyline fill="none" stroke="black" points="0,-112.5 49.61,-112.5 "/>
<text text-anchor="middle" x="24.8" y="-95.9" font-family="Courier New" font-size="14.00">1</text>
<polyline fill="none" stroke="black" points="0,-87.7 49.61,-87.7 "/>
<text text-anchor="middle" x="24.8" y="-71.1" font-family="Courier New" font-size="14.00">2</text>
<polyline fill="none" stroke="black" points="49.61,-62.9 49.61,-162.1 "/>
<text text-anchor="middle" x="322.25" y="-145.5" font-family="Courier New" font-size="14.00">type: &lt;inherited contract&gt;.variable (bytes)</text>
<polyline fill="none" stroke="black" points="49.61,-137.3 594.89,-137.3 "/>
<text text-anchor="middle" x="322.23" y="-120.7" font-family="Courier New" font-size="14.00">string: AllowanceMeta.__name (32)</text>
<polyline fill="none" stroke="black" points="49.61,-112.5 594.89,-112.5 "/>
<text text-anchor="middle" x="321.83" y="-95.9" font-family="Courier New" font-size="14.00">string: AllowanceMeta.__version (32)</text>
<polyline fill="none" stroke="black" points="49.61,-87.7 594.89,-87.7 "/>
<text text-anchor="middle" x="322.25" y="-71.1" font-family="Courier New" font-size="14.00">mapping(bytes32=&gt;Allowance): AllowanceDatabase._allowances (32)</text>
</g>
<!-- 1 -->
<g id="node2" class="node">
<title>1</title>
<polygon fill="#f2f2f2" stroke="black" points="630.89,-0.5 630.89,-149.3 1274.59,-149.3 1274.59,-0.5 630.89,-0.5"/>
<text text-anchor="middle" x="952.74" y="-132.7" font-family="Courier New" font-size="14.00">Allowance &lt;&lt;Struct&gt;&gt;</text>
<polyline fill="none" stroke="black" points="630.89,-124.5 1274.59,-124.5 "/>
<text text-anchor="middle" x="664.1" y="-107.9" font-family="Courier New" font-size="14.00">offset</text>
<polyline fill="none" stroke="black" points="630.89,-99.7 697.3,-99.7 "/>
<text text-anchor="middle" x="664.1" y="-83.1" font-family="Courier New" font-size="14.00">0</text>
<polyline fill="none" stroke="black" points="630.89,-74.9 697.3,-74.9 "/>
<text text-anchor="middle" x="664.1" y="-58.3" font-family="Courier New" font-size="14.00">1</text>
<polyline fill="none" stroke="black" points="630.89,-50.1 697.3,-50.1 "/>
<text text-anchor="middle" x="664.1" y="-33.5" font-family="Courier New" font-size="14.00">2</text>
<polyline fill="none" stroke="black" points="630.89,-25.3 697.3,-25.3 "/>
<text text-anchor="middle" x="664.1" y="-8.7" font-family="Courier New" font-size="14.00">3</text>
<polyline fill="none" stroke="black" points="697.3,-0.5 697.3,-124.5 "/>
<text text-anchor="middle" x="985.94" y="-107.9" font-family="Courier New" font-size="14.00">type: variable (bytes)</text>
<polyline fill="none" stroke="black" points="697.3,-99.7 1274.59,-99.7 "/>
<text text-anchor="middle" x="843.61" y="-83.1" font-family="Courier New" font-size="14.00">uint96: amount (12)</text>
<polyline fill="none" stroke="black" points="989.93,-74.9 989.93,-99.7 "/>
<text text-anchor="middle" x="1132.04" y="-83.1" font-family="Courier New" font-size="14.00">address: safe (20)</text>
<polyline fill="none" stroke="black" points="697.3,-74.9 1274.59,-74.9 "/>
<text text-anchor="middle" x="832.91" y="-58.3" font-family="Courier New" font-size="14.00">uint96: spent (12)</text>
<polyline fill="none" stroke="black" points="968.52,-50.1 968.52,-74.9 "/>
<text text-anchor="middle" x="1121.44" y="-58.3" font-family="Courier New" font-size="14.00">address: delegate (20)</text>
<polyline fill="none" stroke="black" points="697.3,-50.1 1274.59,-50.1 "/>
<text text-anchor="middle" x="801.92" y="-33.5" font-family="Courier New" font-size="14.00">uint32: resetPeriod (4)</text>
<polyline fill="none" stroke="black" points="906.53,-25.3 906.53,-50.1 "/>
<text text-anchor="middle" x="1002.75" y="-33.5" font-family="Courier New" font-size="14.00">uint64: lastReset (8)</text>
<polyline fill="none" stroke="black" points="1098.96,-25.3 1098.96,-50.1 "/>
<text text-anchor="middle" x="1186.77" y="-33.5" font-family="Courier New" font-size="14.00">address: token (20)</text>
<polyline fill="none" stroke="black" points="697.3,-25.3 1274.59,-25.3 "/>
<text text-anchor="middle" x="835.11" y="-8.7" font-family="Courier New" font-size="14.00">uint192: nonce (24)</text>
<polyline fill="none" stroke="black" points="972.93,-0.5 972.93,-25.3 "/>
<text text-anchor="middle" x="1123.34" y="-8.7" font-family="Courier New" font-size="14.00">uint64: expiration (8)</text>
</g>
<!-- 2&#45;&gt;1 -->
<g id="edge1" class="edge">
<title>2:12&#45;&gt;1</title>
<path fill="none" stroke="black" d="M594.89,-74.9C603.35,-74.9 611.93,-74.9 620.58,-74.9"/>
<polygon fill="black" stroke="black" points="620.76,-78.4 630.76,-74.9 620.76,-71.4 620.76,-78.4"/>
</g>
</g>
</svg>
